<svg xmlns="http://www.w3.org/2000/svg" viewBox="0 0 410 404">
  <defs>
    <linearGradient id="gradient" x1="50%" y1="0%" x2="50%" y2="100%">
      <stop offset="0%" stop-color="#41D1FF"/>
      <stop offset="100%" stop-color="#BD34FE"/>
    </linearGradient>
    <linearGradient id="gradient2" x1="50%" y1="0%" x2="50%" y2="100%">
      <stop offset="0%" stop-color="#FFEA83"/>
      <stop offset="100%" stop-color="#FFA800"/>
    </linearGradient>
  </defs>
  <path fill="url(#gradient)" d="M399.783 46.587c4.242-10.71 1.403-22.684-7.418-29.992a26.065 26.065 0 0 0-29.36-2.395L23.313 226.169c-8.363 4.863-13.25 14.02-12.394 23.59.856 9.57 6.76 17.716 15.59 21.524l81.212 35.193 37.347 77.25c4.49 9.284 13.73 15.227 24.032 15.344 10.302.117 19.67-5.67 24.34-14.842L399.783 46.587Z"/>
  <path fill="url(#gradient2)" d="M233.06 95.33c-8.66 0-16.93 3.45-23.04 9.56-6.11 6.11-9.56 14.38-9.56 23.04s3.45 16.93 9.56 23.04c6.11 6.11 14.38 9.56 23.04 9.56s16.93-3.45 23.04-9.56c6.11-6.11 9.56-14.38 9.56-23.04s-3.45-16.93-9.56-23.04c-6.11-6.11-14.38-9.56-23.04-9.56Zm103.79 52.54c-2.44-6.29-6.86-11.52-12.57-15.06a34.485 34.485 0 0 0-18.73-5.57c-6.31 0-12.53 1.84-17.79 5.31-5.27 3.47-9.48 8.4-12.17 14.21-2.69 5.81-3.66 12.24-2.8 18.56.86 6.32 3.38 12.28 7.36 17.25 3.98 4.97 9.16 8.79 15.06 11.02 5.9 2.22 12.3 2.87 18.54 1.87 6.24-1 12.09-3.52 17-7.3 4.91-3.77 8.72-8.84 11-14.71a34.562 34.562 0 0 0 0-27.58ZM163.43 61.87c-4.06 0-8.06.79-11.82 2.33-3.76 1.54-7.18 3.8-10.1 6.63-2.92 2.84-5.21 6.21-6.76 9.93-1.55 3.72-2.33 7.72-2.33 11.79 0 4.06.78 8.06 2.33 11.78 1.55 3.72 3.84 7.09 6.76 9.92 2.92 2.84 6.34 5.1 10.1 6.64a27.626 27.626 0 0 0 23.64-.32c3.62-1.64 6.84-4.04 9.49-7.04 2.65-3.01 4.77-6.55 6.21-10.43 1.44-3.88 2.19-8 2.19-12.14 0-4.14-.75-8.26-2.19-12.14-1.44-3.88-3.56-7.42-6.21-10.43-2.65-3.01-5.87-5.4-9.49-7.04a27.618 27.618 0 0 0-11.81-2.37Zm-63.51 116.96c-7.58 0-14.85 3.01-20.22 8.38-5.38 5.38-8.39 12.65-8.39 20.23s3.01 14.85 8.39 20.22c5.37 5.37 12.64 8.38 20.22 8.38 7.58 0 14.85-3.01 20.22-8.38s8.39-12.64 8.39-20.22c0-7.58-3.01-14.85-8.39-20.23-5.37-5.37-12.64-8.38-20.22-8.38Z"/>
</svg>
